<?xml version="1.0" encoding="UTF-8"?>
<svg width="824px" height="844px" viewBox="0 0 824 844" version="1.1" xmlns="http://www.w3.org/2000/svg" xmlns:xlink="http://www.w3.org/1999/xlink">
    <title>openosckit-icon-cropped</title>
    <defs>
        <radialGradient cx="23.8037109%" cy="18.5852051%" fx="23.8037109%" fy="18.5852051%" r="100%" id="radialGradient-1">
            <stop stop-color="#EF324D" offset="0%"></stop>
            <stop stop-color="#C8A552" offset="100%"></stop>
        </radialGradient>
        <path d="M230.749668,-9.32256277e-15 L593.250332,9.32256277e-15 C673.487019,-5.41667744e-15 702.58278,8.354305 731.916113,24.0419433 C761.249447,39.7295817 784.270418,62.7505533 799.958057,92.0838867 C815.645695,121.41722 824,150.512981 824,230.749668 L824,593.250332 C824,673.487019 815.645695,702.58278 799.958057,731.916113 C784.270418,761.249447 761.249447,784.270418 731.916113,799.958057 C702.58278,815.645695 673.487019,824 593.250332,824 L230.749668,824 C150.512981,824 121.41722,815.645695 92.0838867,799.958057 C62.7505533,784.270418 39.7295817,761.249447 24.0419433,731.916113 C8.354305,702.58278 3.61111829e-15,673.487019 -6.21504185e-15,593.250332 L6.21504185e-15,230.749668 C-3.61111829e-15,150.512981 8.354305,121.41722 24.0419433,92.0838867 C39.7295817,62.7505533 62.7505533,39.7295817 92.0838867,24.0419433 C121.41722,8.354305 150.512981,5.41667744e-15 230.749668,-9.32256277e-15 Z" id="path-2"></path>
        <filter x="-2.4%" y="-1.2%" width="104.9%" height="104.9%" filterUnits="objectBoundingBox" id="filter-3">
            <feOffset dx="0" dy="10" in="SourceAlpha" result="shadowOffsetOuter1"></feOffset>
            <feGaussianBlur stdDeviation="5" in="shadowOffsetOuter1" result="shadowBlurOuter1"></feGaussianBlur>
            <feColorMatrix values="0 0 0 0 0   0 0 0 0 0   0 0 0 0 0  0 0 0 0.3 0" type="matrix" in="shadowBlurOuter1"></feColorMatrix>
        </filter>
        <path d="M230.749668,-9.32256277e-15 L593.250332,9.32256277e-15 C673.487019,-5.41667744e-15 702.58278,8.354305 731.916113,24.0419433 C761.249447,39.7295817 784.270418,62.7505533 799.958057,92.0838867 C815.645695,121.41722 824,150.512981 824,230.749668 L824,593.250332 C824,673.487019 815.645695,702.58278 799.958057,731.916113 C784.270418,761.249447 761.249447,784.270418 731.916113,799.958057 C702.58278,815.645695 673.487019,824 593.250332,824 L230.749668,824 C150.512981,824 121.41722,815.645695 92.0838867,799.958057 C62.7505533,784.270418 39.7295817,761.249447 24.0419433,731.916113 C8.354305,702.58278 3.61111829e-15,673.487019 -6.21504185e-15,593.250332 L6.21504185e-15,230.749668 C-3.61111829e-15,150.512981 8.354305,121.41722 24.0419433,92.0838867 C39.7295817,62.7505533 62.7505533,39.7295817 92.0838867,24.0419433 C121.41722,8.354305 150.512981,5.41667744e-15 230.749668,-9.32256277e-15 Z" id="path-4"></path>
        <path d="M495.349609,583.632812 L495.349609,605.898438 L508.313477,605.898438 L508.313477,620.766602 L495.349609,620.766602 L495.349609,662.954102 L495.351317,663.312526 C495.395725,667.906087 495.395725,667.906087 496.594727,669.069824 C497.839844,670.27832 497.839844,670.27832 504.211914,670.27832 C505.164062,670.27832 505.164062,670.27832 506.226074,670.241699 C507.288086,670.205078 507.288086,670.205078 508.313477,670.131836 L508.313477,670.131836 L508.313477,685.732422 L498.425781,686.098633 L497.87082,686.11579 C483.528597,686.50492 483.528597,686.50492 478.210938,680.97168 C474.695312,677.382812 474.695312,677.382812 474.695312,669.912109 L474.695312,669.912109 L474.695312,620.766602 L463.5625,620.766602 L463.5625,605.898438 L474.695312,605.898438 L474.695312,583.632812 L495.349609,583.632812 Z M346.008789,577.041016 L346.008789,621.499023 L387.683594,577.041016 L416.833984,577.041016 L372.595703,621.499023 L419.104492,685 L390.100586,685 L356.775391,637.832031 L346.008789,648.891602 L346.008789,685 L323.816406,685 L323.816406,577.041016 L346.008789,577.041016 Z M451.550781,605.166016 L451.550781,685 L430.383789,685 L430.383789,605.166016 L451.550781,605.166016 Z M451.550781,576.381836 L451.550781,595.644531 L430.383789,595.644531 L430.383789,576.381836 L451.550781,576.381836 Z M205.310547,316.490234 C251.599609,316.490234 251.599609,316.490234 276.0625,341.685547 C308.728516,371.421875 308.728516,371.421875 308.728516,430.748047 C308.728516,488.902344 308.728516,488.902344 276.0625,519.810547 C251.599609,545.005859 251.599609,545.005859 205.310547,545.005859 C159.021484,545.005859 159.021484,545.005859 134.558594,519.810547 C101.746094,488.902344 101.746094,488.902344 101.746094,430.748047 C101.746094,371.421875 101.746094,371.421875 134.558594,341.685547 C159.021484,316.490234 159.021484,316.490234 205.310547,316.490234 Z M631.287109,318.980469 C685.779297,318.980469 685.779297,318.980469 710.974609,354.722656 C724.890625,374.791016 724.890625,374.791016 725.916016,395.005859 L725.916016,395.005859 L680.798828,395.005859 L680.593085,394.287777 C676.244186,379.294559 676.244186,379.294559 669.519531,371.568359 C657.214844,357.505859 657.214844,357.505859 633.044922,357.505859 C608.435547,357.505859 608.435547,357.505859 594.226562,377.354492 C580.017578,397.203125 580.017578,397.203125 580.017578,433.53125 C580.017578,469.859375 580.017578,469.859375 595.032227,487.950195 C610.046875,506.041016 610.046875,506.041016 633.191406,506.041016 C656.921875,506.041016 656.921875,506.041016 669.373047,490.513672 C676.257812,482.164062 676.257812,482.164062 680.798828,465.464844 L680.798828,465.464844 L725.476562,465.464844 L725.332725,466.313598 C719.326866,501.034074 719.326866,501.034074 695.520508,522.886719 C671.423828,545.005859 671.423828,545.005859 633.777344,545.005859 C587.195312,545.005859 587.195312,545.005859 560.535156,515.123047 C533.875,485.09375 533.875,485.09375 533.875,432.798828 C533.875,376.255859 533.875,376.255859 564.197266,345.640625 C590.564453,318.980469 590.564453,318.980469 631.287109,318.980469 Z M419.324219,316.783203 C453.455078,316.783203 453.455078,316.783203 477.551758,334.874023 C501.648438,352.964844 501.648438,352.964844 502.820312,387.388672 L502.820312,387.388672 L459.460938,387.388672 L459.424466,386.834333 C458.063058,367.789062 458.063058,367.789062 442.46875,359.703125 C431.921875,354.283203 431.921875,354.283203 416.248047,354.283203 C398.816406,354.283203 398.816406,354.283203 388.416016,361.314453 C378.015625,368.345703 378.015625,368.345703 378.015625,380.943359 C378.015625,392.515625 378.015625,392.515625 388.269531,398.228516 C394.861328,402.037109 394.861328,402.037109 416.394531,407.164062 L416.394531,407.164062 L453.601562,416.099609 L454.471407,416.310134 C478.286795,422.134242 478.286795,422.134242 490.515625,431.773438 C509.851562,447.007812 509.851562,447.007812 509.851562,475.865234 C509.851562,505.455078 509.851562,505.455078 487.219727,525.010742 C464.587891,544.566406 464.587891,544.566406 423.279297,544.566406 C381.091797,544.566406 381.091797,544.566406 356.921875,525.303711 C332.751953,506.041016 332.751953,506.041016 332.751953,472.349609 L332.751953,472.349609 L375.818359,472.349609 L375.91362,473.018247 C378.005637,487.310991 378.005637,487.310991 383.875,494.46875 C394.861328,507.798828 394.861328,507.798828 421.521484,507.798828 C437.488281,507.798828 437.488281,507.798828 447.449219,504.283203 C466.345703,497.544922 466.345703,497.544922 466.345703,479.234375 C466.345703,468.541016 466.345703,468.541016 456.970703,462.681641 C447.595703,456.96875 447.595703,456.96875 427.527344,452.574219 L427.527344,452.574219 L404.675781,447.447266 L403.804188,447.249194 C370.816964,439.714032 370.816964,439.714032 358.09375,430.894531 C336.267578,415.953125 336.267578,415.953125 336.267578,384.166016 C336.267578,355.162109 336.267578,355.162109 357.361328,335.972656 C378.455078,316.783203 378.455078,316.783203 419.324219,316.783203 Z M205.310547,354.722656 C178.503906,354.722656 178.503906,354.722656 162.537109,374.498047 C146.570312,394.273438 146.570312,394.273438 146.570312,430.748047 C146.570312,467.222656 146.570312,467.222656 162.537109,486.998047 C178.503906,506.773438 178.503906,506.773438 205.310547,506.773438 C232.117188,506.773438 232.117188,506.773438 247.864258,486.998047 C263.611328,467.222656 263.611328,467.222656 263.611328,430.748047 C263.611328,394.419922 263.611328,394.419922 247.864258,374.571289 C232.117188,354.722656 232.117188,354.722656 205.310547,354.722656 Z M372.880859,166.408203 C386.870117,166.408203 386.870117,166.408203 396.574707,176.735352 C406.279297,187.0625 406.279297,187.0625 406.279297,207.057617 C406.279297,228.151367 406.279297,228.151367 396.794434,239.210938 C387.30957,250.270508 387.30957,250.270508 372.368164,250.270508 C362.84668,250.270508 362.84668,250.270508 356.547852,245.509766 C353.105469,242.873047 353.105469,242.873047 349.80957,237.819336 L349.80957,237.819336 L349.80957,279.420898 L329.155273,279.420898 L329.155273,168.166016 L349.150391,168.166016 L349.150391,179.958008 L349.526096,179.38699 C352.73112,174.590983 352.73112,174.590983 356.328125,171.754883 C363.286133,166.408203 363.286133,166.408203 372.880859,166.408203 Z M262.504883,136.745117 C285.649414,136.745117 285.649414,136.745117 297.880859,149.342773 C314.213867,164.210938 314.213867,164.210938 314.213867,193.874023 C314.213867,222.951172 314.213867,222.951172 297.880859,238.405273 C285.649414,251.00293 285.649414,251.00293 262.504883,251.00293 C239.360352,251.00293 239.360352,251.00293 227.128906,238.405273 C210.722656,222.951172 210.722656,222.951172 210.722656,193.874023 C210.722656,164.210938 210.722656,164.210938 227.128906,149.342773 C239.360352,136.745117 239.360352,136.745117 262.504883,136.745117 Z M452.861328,166.041992 C462.822266,166.041992 462.822266,166.041992 470.805664,169.777344 C478.789062,173.512695 478.789062,173.512695 483.989258,181.569336 C488.676758,188.673828 488.676758,188.673828 490.068359,198.048828 C490.874023,203.541992 490.874023,203.541992 490.727539,213.869141 L490.727539,213.869141 L436.088867,213.869141 L436.110071,214.366514 C436.676331,225.981567 436.676331,225.981567 443.632812,230.714844 C447.954102,233.717773 447.954102,233.717773 454.033203,233.717773 C460.478516,233.717773 460.478516,233.717773 464.506836,230.055664 C466.704102,228.078125 466.704102,228.078125 468.388672,224.5625 L468.388672,224.5625 L489.702148,224.5625 L489.648007,224.993277 C488.696733,231.888938 488.696733,231.888938 482.304688,238.991211 C472.050781,250.636719 472.050781,250.636719 453.59375,250.636719 C438.359375,250.636719 438.359375,250.636719 426.713867,240.822266 C415.068359,231.007812 415.068359,231.007812 415.068359,208.888672 C415.068359,188.161133 415.068359,188.161133 425.578613,177.101562 C436.088867,166.041992 436.088867,166.041992 452.861328,166.041992 Z M549.02832,166.261719 C561.40625,166.261719 561.40625,166.261719 569.279785,172.743652 C577.15332,179.225586 577.15332,179.225586 577.15332,194.240234 L577.15332,194.240234 L577.15332,248 L555.766602,248 L555.766602,199.44043 L555.763677,198.920614 C555.696411,193.001221 555.696411,193.001221 554.082031,189.772461 C551.005859,183.620117 551.005859,183.620117 542.363281,183.620117 C531.743164,183.620117 531.743164,183.620117 527.788086,192.628906 C525.737305,197.389648 525.737305,197.389648 525.737305,204.787109 L525.737305,204.787109 L525.737305,248 L504.936523,248 L504.936523,168.3125 L525.078125,168.3125 L525.078125,179.958008 L525.399688,179.471328 C529.25,173.697266 529.25,173.697266 532.695312,171.095703 C539.140625,166.261719 539.140625,166.261719 549.02832,166.261719 Z M366.875,184.645508 C355.522461,184.645508 355.522461,184.645508 351.274414,195.412109 C349.077148,201.125 349.077148,201.125 349.077148,209.914062 C349.077148,223.830078 349.077148,223.830078 356.474609,229.469727 C360.869141,232.765625 360.869141,232.765625 366.875,232.765625 C375.59082,232.765625 375.59082,232.765625 380.168457,226.027344 C384.746094,219.289062 384.746094,219.289062 384.746094,208.083008 C384.746094,198.854492 384.746094,198.854492 380.534668,191.75 C376.323242,184.645508 376.323242,184.645508 366.875,184.645508 Z M262.504883,155.861328 C249.101562,155.861328 249.101562,155.861328 241.118164,165.749023 C233.134766,175.636719 233.134766,175.636719 233.134766,193.874023 C233.134766,212.111328 233.134766,212.111328 241.118164,221.999023 C249.101562,231.886719 249.101562,231.886719 262.504883,231.886719 C275.908203,231.886719 275.908203,231.886719 283.781738,221.999023 C291.655273,212.111328 291.655273,212.111328 291.655273,193.874023 C291.655273,175.709961 291.655273,175.709961 283.781738,165.785645 C275.908203,155.861328 275.908203,155.861328 262.504883,155.861328 Z M452.861328,183.253906 C445.610352,183.253906 445.610352,183.253906 441.618652,187.794922 C437.626953,192.335938 437.626953,192.335938 436.601562,200.099609 L436.601562,200.099609 L469.047852,200.099609 C468.535156,191.823242 468.535156,191.823242 464.030762,187.538574 C459.526367,183.253906 459.526367,183.253906 452.861328,183.253906 Z" id="path-6"></path>
        <filter x="-10.9%" y="-9.5%" width="121.8%" height="124.8%" filterUnits="objectBoundingBox" id="filter-7">
            <feOffset dx="0" dy="16" in="SourceAlpha" result="shadowOffsetOuter1"></feOffset>
            <feGaussianBlur stdDeviation="20" in="shadowOffsetOuter1" result="shadowBlurOuter1"></feGaussianBlur>
            <feComposite in="shadowBlurOuter1" in2="SourceAlpha" operator="out" result="shadowBlurOuter1"></feComposite>
            <feColorMatrix values="0 0 0 0 0   0 0 0 0 0   0 0 0 0 0  0 0 0 0.3 0" type="matrix" in="shadowBlurOuter1"></feColorMatrix>
        </filter>
    </defs>
    <g id="openosckit-icon-cropped" stroke="none" stroke-width="1" fill="none" fill-rule="evenodd">
        <g id="Background">
            <use fill="black" fill-opacity="1" filter="url(#filter-3)" xlink:href="#path-2"></use>
            <use fill="url(#radialGradient-1)" fill-rule="evenodd" xlink:href="#path-2"></use>
        </g>
        <g id="Overlay">
            <mask id="mask-5" fill="white">
                <use xlink:href="#path-4"></use>
            </mask>
            <g id="Mask"></g>
            <g id="Text" mask="url(#mask-5)">
                <use fill="black" fill-opacity="1" filter="url(#filter-7)" xlink:href="#path-6"></use>
                <path stroke-opacity="0.95" stroke="#FFFFFF" stroke-width="2" d="M494.349609,584.632812 L494.349609,606.898438 L507.313477,606.898438 L507.313477,619.766602 L494.349608,619.766602 L494.349653,662.963414 C494.489952,666.64688 495.006151,668.921543 495.898251,669.787405 C496.723586,670.781349 499.494807,671.27832 504.211914,671.27832 C504.857541,671.278342 505.540415,671.265937 506.260536,671.241105 C506.740722,671.224545 507.217465,671.202338 507.690765,671.174483 L507.313,671.194 L507.313477,684.768775 L498.394881,685.09911 L497.843698,685.116157 C488.646614,685.440246 482.34048,683.825493 478.925296,680.2719 C476.843667,678.088169 475.768225,674.791612 475.69897,670.382229 L475.69897,670.382229 L475.695239,619.766602 L464.5625,619.766602 L464.5625,606.898438 L475.695312,606.898438 L475.695313,584.632812 L494.349609,584.632812 Z M345.008789,578.041016 L345.008789,624.028007 L388.116858,578.041016 L414.428204,578.041016 L371.283593,621.399921 L417.132555,684 L390.618471,684 L356.897975,636.272528 L345.008789,648.485229 L345.008789,684 L324.816406,684 L324.816406,578.041016 L345.008789,578.041016 Z M450.550781,606.166016 L450.550781,684 L431.383789,684 L431.383789,606.166016 L450.550781,606.166016 Z M450.550781,577.381836 L450.550781,594.644531 L431.383789,594.644531 L431.383789,577.381836 L450.550781,577.381836 Z M205.310547,317.490234 C235.856993,317.458297 259.201825,325.755602 275.345042,342.382149 C296.934024,362.089693 307.728516,391.544993 307.728516,430.748047 C307.759374,469.20138 296.974938,498.646753 275.375207,519.084166 C259.196135,535.698628 235.841248,544.005859 205.310547,544.005859 C174.7641,544.037797 151.419269,535.740492 135.276052,519.113945 C113.589413,498.64068 102.746094,469.18538 102.746094,430.748047 C102.709103,391.526322 113.53711,362.085818 135.230113,342.426534 C151.419701,325.802334 174.779846,317.490234 205.310547,317.490234 Z M205.310547,353.722656 C187.110402,353.722656 172.59324,360.438385 161.75906,373.869844 C150.99565,387.200673 145.599401,406.160074 145.570312,430.748047 C145.570312,455.34841 150.966562,474.307811 161.75906,487.62625 C172.597215,501.049653 187.114378,507.765383 205.310547,507.773438 C223.514679,507.773438 237.960009,501.05595 248.646538,487.620974 C259.260843,474.291381 264.58244,455.333739 264.611328,430.748047 C264.611328,406.249492 259.290105,387.316734 248.647658,373.949772 C237.956346,360.473745 223.510642,353.731373 205.310547,353.722656 Z M631.287109,319.980469 C667.242624,319.942307 693.531204,331.712981 710.152849,355.29249 C719.160233,368.265186 724.068501,381.285304 724.877652,394.352844 L724.854,394.005 L681.552,394.005 L681.335414,393.270142 C678.481761,383.719458 674.904735,376.395275 670.604335,371.297593 L670.272108,370.909855 C661.917723,361.307191 649.508661,356.505859 633.044922,356.505859 C616.295012,356.507288 603.084517,363.262803 593.413438,376.772403 C583.816198,390.131576 579.017578,409.051192 579.017578,433.53125 C579.053774,458.034227 584.135492,476.386759 594.26273,488.588846 C604.47542,500.890293 617.451645,507.041016 633.191406,507.041016 C649.352837,507.014611 661.673631,501.71385 670.153788,491.138733 C674.718509,485.619454 678.520596,477.395902 681.560049,466.46808 L681.560049,466.46808 L724.29,466.464 L724.19811,466.989941 C720.197138,489.237594 710.605601,507.445591 695.423499,521.613933 L694.844276,522.15003 C678.949854,536.720583 658.59421,544.005859 633.777344,544.005859 C603.039044,544.025744 578.874252,534.176836 561.282968,514.459136 C543.677656,494.590195 534.875,467.370093 534.875,432.798828 C534.84521,395.407861 544.856299,366.589523 564.908268,346.343814 C582.30427,328.768251 604.430551,319.980469 631.287109,319.980469 Z M419.324219,317.783203 C441.843508,317.774033 461.052558,323.737542 476.951369,335.673732 C492.596693,347.444131 500.877609,364.456507 501.794117,386.710858 L501.779,386.388 L460.392,386.388 L460.378127,386.204826 C459.317748,373.604352 453.652344,364.55409 443.381914,359.05404 L442.925819,358.813694 C435.774982,355.1267 426.882391,353.283203 416.248047,353.283203 C404.393098,353.303246 394.929063,355.704182 387.855942,360.48601 C380.629064,365.371002 377.015625,372.190118 377.015625,380.943359 C377.022592,384.978866 377.916372,388.505632 379.696965,391.523658 C381.484539,394.568555 384.17983,397.094759 387.782839,399.102272 C392.147743,401.635136 401.373507,404.590691 415.460131,407.968938 L415.460131,407.968938 L416.161014,408.136415 L453.366328,417.071548 L454.233855,417.281509 C469.943858,421.109131 481.831491,426.201605 489.896753,432.558929 C502.533293,442.547289 508.851562,456.982724 508.851562,475.865234 C508.850058,495.288081 501.421509,511.417698 486.565915,524.254084 C471.619534,537.128966 450.523994,543.566406 423.279297,543.566406 C395.418455,543.59111 373.507064,537.24287 357.545124,524.521687 C341.848329,511.995797 333.918144,494.837303 333.754569,473.046203 L333.757,473.349 L374.952,473.349 L375.027306,473.838996 C376.465271,483.022704 379.064846,489.996417 382.826033,494.760134 L383.103315,495.104754 C390.541303,504.234137 403.34736,508.798828 421.521484,508.798828 C432.302654,508.790907 441.05719,507.599668 447.785093,505.22511 C454.467207,502.825781 459.434335,499.381929 462.686475,494.893555 C465.792627,490.625438 467.345703,485.405711 467.345703,479.234375 C467.352557,471.740254 464.067681,465.938029 457.491073,461.8277 C451.30272,458.043759 441.647633,454.691384 428.525811,451.770575 L428.525811,451.770575 L427.746261,451.598475 L404.897383,446.472128 L404.026879,446.274305 C382.20121,441.307467 367.078461,435.905818 358.658632,430.06936 C344.39793,420.264753 337.267578,404.963638 337.267578,384.166016 C337.265372,365.126861 344.187598,349.308977 358.034257,336.712364 C371.96023,324.092923 392.390218,317.783203 419.324219,317.783203 Z M372.880859,167.408203 C381.920194,167.409819 389.575233,170.747135 395.845976,177.420152 C402.134857,184.165978 405.279297,194.045133 405.279297,207.057617 C405.311886,220.835398 402.230572,231.336172 396.035354,238.559939 C389.906963,245.700318 382.017899,249.270508 372.368164,249.270508 C366.262438,249.284364 361.191693,247.766157 357.155928,244.715887 C355.182494,243.197631 353.246097,241.064204 351.346735,238.315607 L350.991039,237.793037 L348.80957,234.494075 L348.80957,278.420898 L330.155273,278.420898 L330.155273,169.166016 L348.150391,169.166016 L348.150391,183.297424 L350.357531,179.942612 C352.425849,176.840691 354.61915,174.37576 356.937432,172.547817 C361.407794,169.121408 366.722269,167.408203 372.880859,167.408203 Z M366.875,183.645508 C362.885751,183.645508 359.520314,184.590695 356.778689,186.481069 C354.006389,188.378386 351.86156,191.233058 350.344202,195.045087 C348.841009,198.95332 348.085324,203.909645 348.077148,209.914062 C348.077148,219.607314 350.674209,226.390953 355.868329,230.264978 C358.971217,232.59217 362.640108,233.759052 366.875,233.765625 C373.054022,233.765625 377.7609,231.373512 380.995634,226.589285 C384.14296,221.956421 385.726447,215.787662 385.746094,208.083008 C385.746094,201.736978 384.295692,196.122667 381.394887,191.240076 C378.41046,186.205477 373.570498,183.673954 366.875,183.645508 Z M262.504883,137.745117 C277.621642,137.71318 289.174481,141.811266 297.163401,150.039375 C307.863712,159.834811 313.213867,174.44636 313.213867,193.874023 C313.244726,212.942591 307.904626,227.544214 297.193567,237.678893 C289.168791,245.894917 277.605896,250.00293 262.504883,250.00293 C247.388124,250.034867 235.835284,245.936781 227.846364,237.708672 C217.097226,227.538141 211.722656,212.926591 211.722656,193.874023 C211.685666,174.42769 217.044922,159.830935 227.800426,150.08376 C235.835717,141.857998 247.403869,137.745117 262.504883,137.745117 Z M262.504883,154.861328 C253.240285,154.861328 245.852029,158.281159 240.340115,165.12082 C234.89897,171.859852 232.163854,181.444253 232.134766,193.874023 C232.134766,206.316183 234.869882,215.900584 240.340115,222.627226 C245.856004,229.458833 253.24426,232.878664 262.504883,232.886719 C271.773468,232.886719 279.126513,229.465129 284.564018,222.62195 C289.9293,215.884155 292.626385,206.301513 292.655273,193.874023 C292.655273,181.484844 289.958562,171.914878 284.565139,165.164127 C279.12285,158.304312 271.769431,154.870045 262.504883,154.861328 Z M452.861328,167.041992 C459.34512,167.037977 465.1853,168.25168 470.381869,170.683102 C475.535258,173.099465 479.792825,176.911784 483.154569,182.120058 C486.199488,186.741408 488.17428,192.099369 489.078944,198.193942 C489.572734,201.576816 489.794037,206.348167 489.742855,212.507994 L489.739,212.869 L435.043755,212.869141 C435.337832,221.707283 437.914476,227.862527 442.773687,231.334871 L443.062156,231.536033 C446.097917,233.657193 449.754933,234.717773 454.033203,234.717773 C458.606046,234.7012 462.320246,233.394929 465.175801,230.798958 C466.628619,229.499544 467.923136,227.721655 469.059351,225.465291 L469.009,225.562 L488.517788,225.5625 C487.653825,229.876076 485.332616,234.132033 481.554161,238.33037 C474.885345,245.867936 465.565208,249.636719 453.59375,249.636719 C443.680991,249.636747 434.935841,246.443708 427.358299,240.057604 C419.831673,233.641971 416.068359,223.252327 416.068359,208.888672 C416.036795,195.369778 419.448506,185.0037 426.303493,177.790438 C433.129387,170.624807 441.981999,167.041992 452.861328,167.041992 Z M452.861328,182.253906 C447.692202,182.253906 443.694285,183.880839 440.867578,187.134704 C438.185264,190.186144 436.458235,194.281986 435.68649,199.42223 L435.68649,199.42223 L435.452134,201.099609 L470.095539,201.099609 L470.075623,200.588095 C469.794845,194.491733 468.009629,189.900373 464.719975,186.814016 C461.531749,183.781313 457.578867,182.261276 452.861328,182.253906 Z M549.02832,167.261719 C557.02129,167.245363 563.559918,169.330019 568.644204,173.515686 C573.556878,177.632755 576.05902,184.358174 576.150632,193.691944 L576.150632,193.691944 L576.15332,194.240234 L576.15332,247 L556.766601,247 L556.766586,199.434804 L556.763612,198.909251 C556.69974,194.775042 556.104022,191.580375 554.976458,189.325247 C553.924846,187.228482 552.431346,185.620902 550.495957,184.502507 C548.350887,183.24758 545.639995,182.620117 542.363281,182.620117 C538.530065,182.632235 535.311775,183.469458 532.708411,185.131786 C530.193997,186.727122 528.247751,189.094288 526.869673,192.233282 C525.506947,195.373825 524.79735,199.352536 524.740882,204.169413 L524.740882,204.169413 L524.737305,204.787109 L524.737305,247 L505.936523,247 L505.936523,169.3125 L524.078125,169.3125 L524.078125,183.285596 L526.231675,180.026122 C528.714358,176.287013 531.068904,173.576873 533.295313,171.895703 C537.439894,168.80638 542.68423,167.261719 549.02832,167.261719 Z" stroke-linejoin="square" fill-opacity="0.75" fill="#FFFFFF" fill-rule="evenodd"></path>
            </g>
        </g>
    </g>
</svg>